<?xml version="1.0" encoding="UTF-8"?>
<!DOCTYPE svg PUBLIC "-//W3C//DTD SVG 1.1//EN" "http://www.w3.org/Graphics/SVG/1.1/DTD/svg11.dtd">
<svg xmlns="http://www.w3.org/2000/svg" version="1.1" width="735px" height="735px" style="shape-rendering:geometricPrecision; text-rendering:geometricPrecision; image-rendering:optimizeQuality; fill-rule:evenodd; clip-rule:evenodd" xmlns:xlink="http://www.w3.org/1999/xlink">
<g><path style="opacity:1" fill="#000000" d="M -0.5,-0.5 C 244.5,-0.5 489.5,-0.5 734.5,-0.5C 734.5,244.5 734.5,489.5 734.5,734.5C 489.5,734.5 244.5,734.5 -0.5,734.5C -0.5,489.5 -0.5,244.5 -0.5,-0.5 Z"/></g>
<g><path style="opacity:1" fill="#fdfdfd" d="M 139.5,137.5 C 150.5,137.5 161.5,137.5 172.5,137.5C 172.5,150.167 172.5,162.833 172.5,175.5C 163.651,175.174 154.984,175.507 146.5,176.5C 138.371,177.318 130.704,179.818 123.5,184C 120.943,186.892 118.776,190.059 117,193.5C 115.64,198.596 114.474,203.596 113.5,208.5C 112.698,209.952 112.198,211.618 112,213.5C 111.5,245.165 111.333,276.832 111.5,308.5C 111.621,333.6 101.288,352.934 80.5,366.5C 86.3456,371.698 92.1789,377.031 98,382.5C 104.612,391.059 108.446,400.726 109.5,411.5C 109.743,417.184 110.243,422.851 111,428.5C 111.168,458.669 111.668,488.669 112.5,518.5C 113.862,524.657 115.029,530.99 116,537.5C 117.956,543.124 121.123,547.957 125.5,552C 132.801,554.492 140.134,556.325 147.5,557.5C 154.684,558.702 162.018,558.702 169.5,557.5C 170.833,557.5 172.167,557.5 173.5,557.5C 173.5,570.833 173.5,584.167 173.5,597.5C 147.858,599.916 123.191,596.249 99.5,586.5C 87.2533,579.029 79.0866,568.362 75,554.5C 72.6954,545.282 71.0288,535.948 70,526.5C 68.7676,493.518 68.1009,460.518 68,427.5C 67.576,413.151 61.7427,401.651 50.5,393C 45.2652,391.366 40.0985,389.533 35,387.5C 31.2079,386.69 27.3745,386.356 23.5,386.5C 23.5,373.833 23.5,361.167 23.5,348.5C 26.4282,348.435 29.0948,347.768 31.5,346.5C 33.4147,346.784 35.0813,346.451 36.5,345.5C 39.2282,345.829 41.5615,345.163 43.5,343.5C 49.0451,342.393 53.7118,339.727 57.5,335.5C 62.3264,328.515 65.493,320.848 67,312.5C 68.2887,280.534 68.9554,248.534 69,216.5C 69.9052,201.827 72.5718,187.494 77,173.5C 84.2988,156.208 97.1321,145.374 115.5,141C 123.384,139.015 131.384,137.848 139.5,137.5 Z"/></g>
<g><path style="opacity:1" fill="#d4d4d4" d="M 139.5,137.5 C 150.654,136.505 161.988,136.172 173.5,136.5C 173.5,149.833 173.5,163.167 173.5,176.5C 164.5,176.5 155.5,176.5 146.5,176.5C 154.984,175.507 163.651,175.174 172.5,175.5C 172.5,162.833 172.5,150.167 172.5,137.5C 161.5,137.5 150.5,137.5 139.5,137.5 Z"/></g>
<g><path style="opacity:1" fill="#d4d4d4" d="M 590.5,137.5 C 580.833,137.5 571.167,137.5 561.5,137.5C 561.5,150.167 561.5,162.833 561.5,175.5C 568.354,175.176 575.021,175.509 581.5,176.5C 574.5,176.5 567.5,176.5 560.5,176.5C 560.5,163.167 560.5,149.833 560.5,136.5C 570.681,136.173 580.681,136.506 590.5,137.5 Z"/></g>
<g><path style="opacity:1" fill="#fdfdfd" d="M 590.5,137.5 C 609.56,137.096 626.893,142.262 642.5,153C 652.453,162.403 658.62,173.903 661,187.5C 662.771,197.439 664.104,207.439 665,217.5C 665.333,247.167 665.667,276.833 666,306.5C 666.506,323.367 674.006,335.867 688.5,344C 691.757,345.043 695.09,345.543 698.5,345.5C 700.838,347.04 703.505,347.706 706.5,347.5C 707.568,348.434 708.901,348.768 710.5,348.5C 710.5,361.167 710.5,373.833 710.5,386.5C 707.061,386.253 703.728,386.586 700.5,387.5C 697.219,387.42 694.219,388.087 691.5,389.5C 679.452,393.718 671.619,402.052 668,414.5C 667.74,418.25 667.073,421.916 666,425.5C 665.667,455.167 665.333,484.833 665,514.5C 664.279,530.942 661.279,546.942 656,562.5C 649.949,576.217 639.782,585.384 625.5,590C 616.274,592.392 607.274,594.559 598.5,596.5C 586.167,596.5 573.833,596.5 561.5,596.5C 561.5,583.833 561.5,571.167 561.5,558.5C 564.127,557.908 566.794,557.575 569.5,557.5C 576.833,557.167 584.167,556.833 591.5,556.5C 594.187,556.664 596.854,556.497 599.5,556C 602.152,555.647 604.152,554.48 605.5,552.5C 611.974,549.624 616.141,544.624 618,537.5C 619.19,530.358 620.357,523.358 621.5,516.5C 622.332,486.003 622.832,455.336 623,424.5C 624.075,420.23 624.575,415.897 624.5,411.5C 627.061,392.093 636.727,377.26 653.5,367C 635.372,355.608 625.205,339.108 623,317.5C 621.716,283.53 621.049,249.53 621,215.5C 620.537,204.672 617.537,194.672 612,185.5C 602.794,179.291 592.628,176.291 581.5,176.5C 575.021,175.509 568.354,175.176 561.5,175.5C 561.5,162.833 561.5,150.167 561.5,137.5C 571.167,137.5 580.833,137.5 590.5,137.5 Z"/></g>
<g><path style="opacity:1" fill="#d6d6d6" d="M 113.5,208.5 C 112.876,241.987 112.209,275.32 111.5,308.5C 111.333,276.832 111.5,245.165 112,213.5C 112.198,211.618 112.698,209.952 113.5,208.5 Z"/></g>
<g><path style="opacity:1" fill="#fefefe" d="M 310.5,402.5 C 311.11,403.391 311.443,404.391 311.5,405.5C 311.56,406.043 311.893,406.376 312.5,406.5C 313.5,356.171 313.833,305.838 313.5,255.5C 326.5,255.5 339.5,255.5 352.5,255.5C 352.5,332.5 352.5,409.5 352.5,486.5C 338.656,487.124 324.989,486.458 311.5,484.5C 286.444,435.389 261.111,386.389 235.5,337.5C 235.44,336.957 235.107,336.624 234.5,336.5C 233.5,386.496 233.167,436.496 233.5,486.5C 219.833,486.5 206.167,486.5 192.5,486.5C 192.5,409.167 192.5,331.833 192.5,254.5C 206.745,254.176 220.912,254.51 235,255.5C 260.18,304.527 285.346,353.527 310.5,402.5 Z"/></g>
<g><path style="opacity:1" fill="#313131" d="M 312.5,254.5 C 312.832,305.003 312.499,355.336 311.5,405.5C 311.443,404.391 311.11,403.391 310.5,402.5C 311.167,353.167 311.833,303.833 312.5,254.5 Z"/></g>
<g><path style="opacity:1" fill="#b1b1b1" d="M 312.5,254.5 C 312.833,254.5 313.167,254.5 313.5,254.5C 313.5,254.833 313.5,255.167 313.5,255.5C 313.833,305.838 313.5,356.171 312.5,406.5C 311.893,406.376 311.56,406.043 311.5,405.5C 312.499,355.336 312.832,305.003 312.5,254.5 Z"/></g>
<g><path style="opacity:1" fill="#d1d1d1" d="M 313.5,255.5 C 313.5,255.167 313.5,254.833 313.5,254.5C 326.833,254.5 340.167,254.5 353.5,254.5C 353.833,332.002 353.499,409.335 352.5,486.5C 352.5,409.5 352.5,332.5 352.5,255.5C 339.5,255.5 326.5,255.5 313.5,255.5 Z"/></g>
<g><path style="opacity:1" fill="#fcfcfc" d="M 482.5,295.5 C 470.34,294.34 458.007,294.173 445.5,295C 443.509,295.374 441.842,296.207 440.5,297.5C 434.5,300.167 430.167,304.5 427.5,310.5C 426.076,312.515 425.41,314.848 425.5,317.5C 424.341,352.095 424.174,386.762 425,421.5C 426.719,430.616 431.219,437.949 438.5,443.5C 441.084,445.472 444.084,446.472 447.5,446.5C 458.993,447.659 470.659,447.826 482.5,447C 483.737,446.768 484.737,446.268 485.5,445.5C 487.901,444.461 490.235,443.127 492.5,441.5C 495.917,436.931 498.583,431.931 500.5,426.5C 514.818,425.501 529.151,425.167 543.5,425.5C 540.436,455.806 524.436,475.64 495.5,485C 477.868,486.564 460.201,486.898 442.5,486C 415.297,482.377 396.63,467.711 386.5,442C 385.724,437.03 384.724,432.197 383.5,427.5C 383.227,387.489 383.561,347.489 384.5,307.5C 386.277,304.495 387.277,301.162 387.5,297.5C 399.047,271.46 419.047,257.293 447.5,255C 463.919,253.91 480.252,254.576 496.5,257C 524.954,266.631 540.621,286.465 543.5,316.5C 529.151,316.833 514.818,316.499 500.5,315.5C 498.951,304.626 492.951,297.959 482.5,295.5 Z"/></g>
<g><path style="opacity:1" fill="#a3a3a3" d="M 482.5,295.5 C 470.495,295.333 458.495,295.5 446.5,296C 444.564,296.813 442.564,297.313 440.5,297.5C 441.842,296.207 443.509,295.374 445.5,295C 458.007,294.173 470.34,294.34 482.5,295.5 Z"/></g>
<g><path style="opacity:1" fill="#838383" d="M 387.5,297.5 C 387.277,301.162 386.277,304.495 384.5,307.5C 384.723,303.838 385.723,300.505 387.5,297.5 Z"/></g>
<g><path style="opacity:1" fill="#5a5a5a" d="M 427.5,310.5 C 427.59,313.152 426.924,315.485 425.5,317.5C 425.41,314.848 426.076,312.515 427.5,310.5 Z"/></g>
<g><path style="opacity:1" fill="#7b7b7b" d="M 384.5,307.5 C 383.561,347.489 383.227,387.489 383.5,427.5C 382.336,390.002 382.169,352.336 383,314.5C 383.186,311.964 383.686,309.631 384.5,307.5 Z"/></g>
<g><path style="opacity:1" fill="#989898" d="M 235.5,337.5 C 234.501,387.331 234.168,437.331 234.5,487.5C 220.323,487.829 206.323,487.496 192.5,486.5C 206.167,486.5 219.833,486.5 233.5,486.5C 233.167,436.496 233.5,386.496 234.5,336.5C 235.107,336.624 235.44,336.957 235.5,337.5 Z"/></g>
<g><path style="opacity:1" fill="#8e8e8e" d="M 43.5,343.5 C 41.5615,345.163 39.2282,345.829 36.5,345.5C 38.5994,344.388 40.9327,343.721 43.5,343.5 Z"/></g>
<g><path style="opacity:1" fill="#737373" d="M 698.5,345.5 C 701.428,345.565 704.095,346.232 706.5,347.5C 703.505,347.706 700.838,347.04 698.5,345.5 Z"/></g>
<g><path style="opacity:1" fill="#818181" d="M 31.5,346.5 C 29.0948,347.768 26.4282,348.435 23.5,348.5C 25.78,346.777 28.4467,346.111 31.5,346.5 Z"/></g>
<g><path style="opacity:1" fill="#707070" d="M 700.5,387.5 C 697.781,388.913 694.781,389.58 691.5,389.5C 694.219,388.087 697.219,387.42 700.5,387.5 Z"/></g>
<g><path style="opacity:1" fill="#c8c8c8" d="M 624.5,411.5 C 624.575,415.897 624.075,420.23 623,424.5C 622.832,455.336 622.332,486.003 621.5,516.5C 621.333,485.165 621.5,453.832 622,422.5C 622.419,418.608 623.252,414.942 624.5,411.5 Z"/></g>
<g><path style="opacity:1" fill="#d7d7d7" d="M 109.5,411.5 C 110.832,415.264 111.665,419.264 112,423.5C 112.5,455.165 112.667,486.832 112.5,518.5C 111.668,488.669 111.168,458.669 111,428.5C 110.243,422.851 109.743,417.184 109.5,411.5 Z"/></g>
<g><path style="opacity:1" fill="#616161" d="M 438.5,443.5 C 442.911,444.598 447.245,445.598 451.5,446.5C 450.167,446.5 448.833,446.5 447.5,446.5C 444.084,446.472 441.084,445.472 438.5,443.5 Z"/></g>
<g><path style="opacity:1" fill="#ababab" d="M 485.5,445.5 C 484.737,446.268 483.737,446.768 482.5,447C 470.659,447.826 458.993,447.659 447.5,446.5C 448.833,446.5 450.167,446.5 451.5,446.5C 462.864,446.743 474.198,446.41 485.5,445.5 Z"/></g>
<g><path style="opacity:1" fill="#a8a8a8" d="M 605.5,552.5 C 604.152,554.48 602.152,555.647 599.5,556C 596.854,556.497 594.187,556.664 591.5,556.5C 596.236,555.809 600.902,554.475 605.5,552.5 Z"/></g>
<g><path style="opacity:1" fill="#b2b2b2" d="M 169.5,557.5 C 162.018,558.702 154.684,558.702 147.5,557.5C 155.024,557.163 162.357,557.163 169.5,557.5 Z"/></g>
<g><path style="opacity:1" fill="#dbdbdb" d="M 569.5,557.5 C 566.794,557.575 564.127,557.908 561.5,558.5C 561.5,571.167 561.5,583.833 561.5,596.5C 573.833,596.5 586.167,596.5 598.5,596.5C 586.011,597.495 573.344,597.829 560.5,597.5C 560.167,584.15 560.501,570.817 561.5,557.5C 564.303,556.224 566.97,556.224 569.5,557.5 Z"/></g>
</svg>
